<?xml version="1.0" encoding="utf-8"?>
<!-- Generator: Adobe Illustrator 16.0.0, SVG Export Plug-In . SVG Version: 6.00 Build 0)  -->
<!DOCTYPE svg PUBLIC "-//W3C//DTD SVG 1.1//EN" "http://www.w3.org/Graphics/SVG/1.1/DTD/svg11.dtd">
<svg version="1.1" id="Layer_8" xmlns="http://www.w3.org/2000/svg" xmlns:xlink="http://www.w3.org/1999/xlink" x="0px" y="0px"
	 width="203.896px" height="82.402px" viewBox="0 0 203.896 82.402" enable-background="new 0 0 203.896 82.402"
	 xml:space="preserve">
<g>
	<path fill="#C55B11" d="M19.041,15.696V29.28c1.709-1.709,3.419-3.06,5.128-3.958c1.709-0.899,3.869-1.35,6.479-1.35
		c2.969,0,5.579,0.721,7.737,2.068c2.249,1.439,3.958,3.419,5.219,6.118c1.26,2.699,1.799,5.849,1.799,9.447
		c0,2.698-0.36,5.128-0.99,7.377c-0.72,2.249-1.709,4.229-2.969,5.848c-1.35,1.62-2.879,2.969-4.77,3.869
		c-1.889,0.899-3.868,1.35-6.118,1.35c-1.35,0-2.698-0.18-3.868-0.45c-1.169-0.359-2.249-0.72-3.06-1.26
		c-0.81-0.539-1.529-1.079-2.159-1.619c-0.63-0.539-1.35-1.438-2.339-2.519V55.1c0,1.709-0.359,2.97-1.169,3.778
		c-0.81,0.899-1.8,1.26-3.059,1.26c-1.26,0-2.25-0.449-3.06-1.26c-0.72-0.9-1.169-2.159-1.169-3.778V16.054
		c0-1.8,0.36-3.148,1.08-4.139c0.72-0.9,1.709-1.35,3.06-1.35c1.349,0,2.429,0.449,3.148,1.35
		C18.68,12.816,19.041,14.075,19.041,15.696z M19.491,42.147c0,3.508,0.81,6.297,2.429,8.187s3.779,2.879,6.388,2.879
		c2.25,0,4.14-0.99,5.759-2.879c1.62-1.979,2.429-4.768,2.429-8.367c0-2.339-0.36-4.408-0.99-6.027
		c-0.63-1.71-1.62-2.97-2.879-3.959c-1.26-0.9-2.699-1.351-4.319-1.351c-1.709,0-3.238,0.449-4.499,1.351
		c-1.349,0.898-2.339,2.249-3.147,4.049C19.851,37.648,19.491,39.717,19.491,42.147z"/>
	<path display="none" fill="#3D66AD" d="M60.697,28.741v1.08c1.529-2.069,3.239-3.6,5.128-4.589s3.958-1.439,6.388-1.439
		c2.339,0,4.408,0.54,6.298,1.529c1.89,0.99,3.239,2.429,4.139,4.317c0.63,1.08,0.989,2.249,1.17,3.51
		c0.18,1.259,0.27,2.879,0.27,4.857V54.56c0,1.8-0.45,3.149-1.26,4.05c-0.81,0.898-1.889,1.349-3.148,1.349
		c-1.35,0-2.43-0.45-3.238-1.438c-0.811-0.899-1.26-2.249-1.26-4.049V39.806c0-2.969-0.449-5.218-1.26-6.749
		c-0.81-1.528-2.429-2.338-4.857-2.338c-1.62,0-3.06,0.45-4.319,1.439c-1.35,0.99-2.249,2.25-2.879,3.869
		c-0.36,1.35-0.629,3.868-0.629,7.467v11.157c0,1.799-0.45,3.148-1.26,4.048c-0.811,0.899-1.891,1.35-3.239,1.35
		c-1.259,0-2.339-0.45-3.149-1.438c-0.81-0.9-1.259-2.25-1.259-4.049V28.921c0-1.71,0.36-2.969,1.08-3.779
		c0.72-0.81,1.709-1.259,3.059-1.259c0.811,0,1.529,0.181,2.159,0.54s1.169,0.899,1.529,1.619
		C60.518,26.85,60.697,27.751,60.697,28.741z"/>
	<path display="none" fill="#3E68B5" d="M117.828,44.125h-17.454c0,1.979,0.45,3.779,1.259,5.309
		c0.811,1.529,1.891,2.699,3.149,3.509c1.35,0.81,2.79,1.17,4.319,1.17c1.079,0,2.068-0.09,2.879-0.36
		c0.899-0.27,1.709-0.629,2.519-1.169s1.62-1.08,2.249-1.709c0.72-0.63,1.62-1.439,2.7-2.52c0.45-0.359,1.08-0.631,1.979-0.631
		c0.9,0,1.619,0.271,2.249,0.721c0.54,0.54,0.811,1.17,0.811,2.16c0,0.81-0.359,1.709-0.99,2.788
		c-0.629,1.079-1.619,2.069-2.878,3.06s-2.879,1.799-4.77,2.429c-1.89,0.63-4.139,0.99-6.657,0.99
		c-5.759,0-10.167-1.62-13.315-4.858c-3.149-3.238-4.768-7.647-4.768-13.314c0-2.609,0.358-5.039,1.169-7.288
		c0.81-2.25,1.89-4.14,3.419-5.758c1.529-1.62,3.329-2.879,5.578-3.688c2.159-0.898,4.589-1.259,7.288-1.259
		c3.509,0,6.478,0.719,8.996,2.158c2.52,1.439,4.318,3.329,5.579,5.668c1.26,2.338,1.89,4.678,1.89,7.106
		c0,2.249-0.629,3.688-1.89,4.319C121.967,43.856,120.168,44.125,117.828,44.125z M100.374,39.087h16.195
		c-0.181-3.059-1.08-5.308-2.431-6.838C112.7,30.719,110.81,30,108.47,30c-2.249,0-4.049,0.81-5.487,2.339
		C101.544,33.779,100.734,36.119,100.374,39.087z"/>
	<path fill="#C55B11" d="M131.503,49.972L142.21,34.32l-8.997-13.855c-0.81-1.35-1.438-2.52-1.89-3.509
		c-0.45-0.99-0.629-1.889-0.629-2.79c0-0.9,0.451-1.709,1.26-2.429c0.81-0.721,1.799-1.08,2.968-1.08c1.351,0,2.43,0.359,3.149,1.17
		c0.72,0.81,1.799,2.249,3.148,4.409l7.198,11.605l7.647-11.605c0.629-0.989,1.169-1.799,1.619-2.52
		c0.449-0.72,0.898-1.26,1.259-1.709c0.45-0.45,0.898-0.81,1.351-0.99c0.539-0.27,1.079-0.359,1.799-0.359
		c1.26,0,2.249,0.359,2.969,1.08c0.81,0.72,1.169,1.62,1.169,2.608c0,1.439-0.811,3.419-2.52,5.938l-9.447,14.125l10.166,15.563
		c0.9,1.351,1.62,2.521,1.979,3.42c0.45,0.899,0.63,1.8,0.63,2.52s-0.18,1.438-0.54,2.069c-0.36,0.63-0.9,1.17-1.53,1.529
		c-0.72,0.36-1.438,0.54-2.249,0.54c-0.899,0-1.709-0.18-2.339-0.54c-0.63-0.359-1.17-0.81-1.528-1.438
		c-0.36-0.629-1.081-1.619-2.16-3.329l-8.457-13.226l-8.908,13.677c-0.719,1.079-1.169,1.889-1.439,2.249
		c-0.27,0.359-0.629,0.898-1.078,1.259c-0.45,0.45-0.9,0.72-1.439,0.99c-0.54,0.27-1.26,0.359-1.979,0.359
		c-1.169,0-2.159-0.359-2.88-1.08c-0.81-0.719-1.169-1.799-1.169-3.147C129.164,54.292,129.973,52.313,131.503,49.972z"/>
	
		<linearGradient id="SVGID_1_" gradientUnits="userSpaceOnUse" x1="173.2771" y1="13.6648" x2="173.2771" y2="36.3674" gradientTransform="matrix(1 0 0 -1 8.3398 58.4419)">
		<stop  offset="0" style="stop-color:#6F92D2"/>
		<stop  offset="1" style="stop-color:#365BA1"/>
	</linearGradient>
	<path fill="url(#SVGID_1_)" d="M173.52,24.602h0.989v-5.308c0-1.438,0-2.519,0.089-3.418c0.091-0.81,0.271-1.53,0.631-2.07
		c0.359-0.63,0.81-1.079,1.529-1.438c0.629-0.36,1.35-0.54,2.159-0.54c1.169,0,2.159,0.451,3.06,1.26
		c0.63,0.539,0.989,1.259,1.17,2.069c0.179,0.81,0.27,1.979,0.27,3.509v6.028h3.239c1.259,0,2.249,0.269,2.879,0.898
		c0.629,0.629,0.989,1.351,0.989,2.339c0,1.169-0.449,2.069-1.439,2.52c-0.99,0.451-2.34,0.72-4.049,0.72h-1.62v16.374
		c0,1.351,0.09,2.429,0.18,3.239c0.09,0.719,0.36,1.349,0.811,1.799s1.08,0.72,2.068,0.72c0.54,0,1.26-0.089,2.16-0.27
		c0.899-0.18,1.619-0.271,2.069-0.271c0.72,0,1.35,0.271,1.979,0.9c0.54,0.54,0.899,1.259,0.899,2.159
		c0,1.438-0.81,2.519-2.339,3.329c-1.53,0.72-3.779,1.169-6.748,1.169c-2.789,0-4.858-0.449-6.297-1.439
		c-1.439-0.899-2.34-2.249-2.79-3.868c-0.449-1.618-0.629-3.868-0.629-6.657V31.08h-1.17c-1.259,0-2.249-0.27-2.97-0.899
		c-0.719-0.63-0.989-1.35-0.989-2.339c0-0.898,0.359-1.709,1.08-2.339C171.179,24.962,172.17,24.602,173.52,24.602z"/>
	<g>
		<g>
			<path fill="#3E68B5" d="M10.314,63.557v-1.349h1.17v1.349H10.314z M10.314,71.656v-6.838h1.17v6.838H10.314z"/>
			<path fill="#3E68B5" d="M13.463,71.656v-6.838h0.989v0.988c0.541-0.719,1.26-1.169,2.16-1.169c0.45,0,0.81,0.09,1.17,0.181
				c0.359,0.179,0.629,0.358,0.81,0.539c0.181,0.271,0.271,0.54,0.36,0.899c0,0.18,0.09,0.629,0.09,1.169v4.229h-1.169v-4.14
				c0-0.449-0.09-0.81-0.18-1.08c-0.09-0.27-0.271-0.449-0.45-0.539c-0.271-0.181-0.54-0.181-0.811-0.181
				c-0.449,0-0.898,0.181-1.26,0.45c-0.358,0.27-0.54,0.9-0.54,1.799v3.779h-1.169L13.463,71.656L13.463,71.656z"/>
			<path fill="#3E68B5" d="M24.799,63.557v-1.349h1.17v1.349H24.799z M24.799,71.656v-6.838h1.17v6.838H24.799z"/>
			<path fill="#3E68B5" d="M27.858,71.656v-6.838h1.08v0.988c0.54-0.719,1.259-1.169,2.158-1.169c0.45,0,0.811,0.09,1.169,0.181
				c0.36,0.179,0.63,0.358,0.811,0.539c0.18,0.271,0.27,0.54,0.36,0.899c0,0.18,0.09,0.629,0.09,1.169v4.229h-1.169v-4.14
				c0-0.449-0.091-0.81-0.181-1.08c-0.09-0.27-0.27-0.449-0.449-0.539c-0.271-0.181-0.54-0.181-0.811-0.181
				c-0.45,0-0.9,0.181-1.259,0.45c-0.36,0.27-0.54,0.9-0.54,1.799v3.779h-1.26V71.656z"/>
			<path fill="#3E68B5" d="M35.416,71.656v-6.838h1.08v0.988c0.54-0.719,1.26-1.169,2.159-1.169c0.45,0,0.81,0.09,1.17,0.181
				c0.36,0.179,0.629,0.358,0.81,0.539c0.181,0.271,0.271,0.54,0.36,0.899c0,0.18,0.09,0.629,0.09,1.169v4.229h-1.17v-4.14
				c0-0.449-0.09-0.81-0.18-1.08c-0.09-0.27-0.271-0.449-0.449-0.539c-0.271-0.181-0.54-0.181-0.811-0.181
				c-0.449,0-0.898,0.181-1.26,0.45c-0.359,0.27-0.54,0.9-0.54,1.799v3.779h-1.259L35.416,71.656L35.416,71.656z"/>
			<path fill="#3E68B5" d="M42.432,68.237c0-1.261,0.36-2.25,1.08-2.789c0.631-0.54,1.351-0.721,2.16-0.721
				c0.899,0,1.709,0.271,2.339,0.9s0.9,1.439,0.9,2.52c0,0.899-0.09,1.529-0.36,2.068c-0.27,0.54-0.629,0.9-1.169,1.169
				c-0.54,0.271-1.08,0.45-1.62,0.45c-0.989,0-1.709-0.27-2.339-0.9C42.794,70.216,42.432,69.406,42.432,68.237z M43.693,68.237
				c0,0.898,0.18,1.528,0.54,1.979c0.359,0.451,0.899,0.631,1.439,0.631s1.079-0.18,1.439-0.631c0.359-0.45,0.54-1.08,0.54-1.979
				c0-0.811-0.181-1.53-0.54-1.891c-0.36-0.449-0.9-0.629-1.439-0.629c-0.54,0-1.08,0.181-1.439,0.629
				C43.873,66.708,43.693,67.337,43.693,68.237z"/>
			<path fill="#3E68B5" d="M52.33,71.656l-2.609-6.838h1.261l1.438,4.138c0.18,0.45,0.271,0.9,0.45,1.35
				c0.09-0.359,0.27-0.81,0.45-1.259l1.529-4.139h1.17l-2.609,6.837h-1.08V71.656z"/>
			<path fill="#3E68B5" d="M61.596,70.756c-0.449,0.36-0.81,0.629-1.259,0.811c-0.359,0.18-0.81,0.27-1.26,0.27
				c-0.72,0-1.35-0.179-1.709-0.539c-0.36-0.361-0.63-0.81-0.63-1.439c0-0.36,0.09-0.631,0.27-0.9c0.181-0.271,0.36-0.54,0.629-0.63
				c0.271-0.18,0.54-0.271,0.812-0.36c0.27-0.09,0.54-0.09,0.989-0.18c0.899-0.089,1.619-0.271,2.068-0.359c0-0.18,0-0.27,0-0.27
				c0-0.45-0.09-0.811-0.359-0.99c-0.271-0.27-0.721-0.36-1.351-0.36c-0.54,0-0.989,0.091-1.169,0.271
				c-0.27,0.18-0.45,0.54-0.54,0.99l-1.169-0.181c0.09-0.449,0.271-0.899,0.54-1.169c0.271-0.27,0.54-0.54,0.99-0.72
				c0.449-0.179,0.989-0.27,1.529-0.27c0.539,0,1.079,0.09,1.438,0.18c0.36,0.18,0.63,0.27,0.811,0.54
				c0.18,0.18,0.27,0.449,0.359,0.81c0,0.181,0.09,0.539,0.09,1.079v1.53c0,1.08,0,1.8,0.09,2.069
				c0.091,0.27,0.181,0.541,0.271,0.81h-1.17C61.777,71.385,61.687,71.116,61.596,70.756z M61.507,68.237
				c-0.45,0.179-1.08,0.358-1.889,0.448c-0.45,0.091-0.811,0.181-0.99,0.271s-0.359,0.18-0.45,0.36c-0.09,0.18-0.18,0.359-0.18,0.54
				c0,0.27,0.09,0.538,0.36,0.81c0.27,0.18,0.54,0.269,0.989,0.269c0.45,0,0.811-0.089,1.171-0.269
				c0.358-0.18,0.629-0.451,0.81-0.81c0.09-0.271,0.18-0.631,0.18-1.171L61.507,68.237L61.507,68.237z"/>
			<path fill="#3E68B5" d="M67.175,70.576l0.181,0.99c-0.36,0.09-0.631,0.09-0.9,0.09c-0.45,0-0.72-0.09-0.99-0.181
				c-0.27-0.091-0.358-0.271-0.45-0.541c-0.09-0.18-0.18-0.629-0.18-1.35v-3.958h-0.81v-0.9h0.81v-1.709l1.169-0.72v2.429h1.169v0.9
				h-1.169v3.958c0,0.36,0,0.54,0.09,0.63c0,0.09,0.09,0.18,0.181,0.271c0.09,0.089,0.18,0.089,0.359,0.089
				C66.816,70.667,66.995,70.667,67.175,70.576z"/>
			<path fill="#3E68B5" d="M68.525,63.557v-1.349h1.169v1.349H68.525z M68.525,71.656v-6.838h1.169v6.838H68.525z"/>
			<path fill="#3E68B5" d="M71.134,68.237c0-1.261,0.36-2.25,1.08-2.789c0.63-0.54,1.35-0.721,2.159-0.721
				c0.899,0,1.709,0.271,2.339,0.9c0.629,0.63,0.899,1.439,0.899,2.52c0,0.899-0.09,1.529-0.36,2.068
				c-0.27,0.54-0.63,0.9-1.169,1.169c-0.54,0.271-1.08,0.45-1.62,0.45c-0.989,0-1.709-0.27-2.339-0.9
				C71.494,70.216,71.134,69.406,71.134,68.237z M72.394,68.237c0,0.898,0.18,1.528,0.539,1.979c0.36,0.451,0.899,0.631,1.439,0.631
				s1.08-0.18,1.439-0.631c0.359-0.45,0.54-1.08,0.54-1.979c0-0.811-0.181-1.53-0.54-1.891c-0.36-0.449-0.899-0.629-1.439-0.629
				s-1.08,0.181-1.439,0.629C72.573,66.708,72.394,67.337,72.394,68.237z"/>
			<path fill="#3E68B5" d="M79.14,71.656v-6.838h1.08v0.988c0.54-0.719,1.261-1.169,2.159-1.169c0.45,0,0.811,0.09,1.169,0.181
				c0.36,0.179,0.63,0.358,0.811,0.539c0.18,0.271,0.27,0.54,0.359,0.899c0,0.18,0.09,0.629,0.09,1.169v4.229h-1.17v-4.14
				c0-0.449-0.09-0.81-0.18-1.08c-0.09-0.27-0.27-0.449-0.45-0.539c-0.27-0.181-0.54-0.181-0.81-0.181c-0.45,0-0.9,0.181-1.26,0.45
				c-0.36,0.271-0.54,0.9-0.54,1.799v3.779h-1.26L79.14,71.656L79.14,71.656z"/>
		</g>
	</g>
	
		<linearGradient id="SVGID_2_" gradientUnits="userSpaceOnUse" x1="-78.2566" y1="-271.5789" x2="-78.2566" y2="-289.3316" gradientTransform="matrix(2.04 0 0 2.04 227.8542 614.0704)">
		<stop  offset="0" style="stop-color:#6F92D2"/>
		<stop  offset="1" style="stop-color:#365BA1"/>
	</linearGradient>
	<path fill="url(#SVGID_2_)" d="M60.697,28.741v1.08c1.529-2.069,3.239-3.6,5.128-4.589s3.958-1.439,6.388-1.439
		c2.339,0,4.408,0.54,6.298,1.529c1.89,0.99,3.239,2.429,4.139,4.317c0.63,1.08,0.989,2.249,1.17,3.51
		c0.18,1.259,0.27,2.879,0.27,4.857V54.56c0,1.8-0.45,3.149-1.26,4.05c-0.81,0.898-1.889,1.349-3.148,1.349
		c-1.35,0-2.43-0.45-3.238-1.438c-0.811-0.899-1.26-2.249-1.26-4.049V39.806c0-2.969-0.449-5.218-1.26-6.749
		c-0.81-1.528-2.429-2.338-4.857-2.338c-1.62,0-3.06,0.45-4.319,1.439c-1.35,0.99-2.249,2.25-2.879,3.869
		c-0.36,1.35-0.629,3.868-0.629,7.467v11.157c0,1.799-0.45,3.148-1.26,4.048c-0.811,0.899-1.891,1.35-3.239,1.35
		c-1.259,0-2.339-0.45-3.149-1.438c-0.81-0.9-1.259-2.25-1.259-4.049V28.921c0-1.71,0.36-2.969,1.08-3.779
		c0.72-0.81,1.709-1.259,3.059-1.259c0.811,0,1.529,0.181,2.159,0.54s1.169,0.899,1.529,1.619
		C60.518,26.85,60.697,27.751,60.697,28.741z"/>
	
		<linearGradient id="SVGID_3_" gradientUnits="userSpaceOnUse" x1="-58.7185" y1="-271.5681" x2="-58.7185" y2="-289.3517" gradientTransform="matrix(2.04 0 0 2.04 227.8542 614.0704)">
		<stop  offset="0" style="stop-color:#6F92D2"/>
		<stop  offset="1" style="stop-color:#365BA1"/>
	</linearGradient>
	<path fill="url(#SVGID_3_)" d="M117.828,44.125h-17.454c0,1.979,0.45,3.779,1.259,5.309c0.811,1.529,1.891,2.699,3.149,3.509
		c1.35,0.81,2.79,1.17,4.319,1.17c1.079,0,2.068-0.09,2.879-0.36c0.899-0.27,1.709-0.629,2.519-1.169s1.62-1.08,2.249-1.709
		c0.72-0.63,1.62-1.439,2.7-2.52c0.45-0.359,1.08-0.631,1.979-0.631c0.9,0,1.619,0.271,2.249,0.721c0.54,0.54,0.811,1.17,0.811,2.16
		c0,0.81-0.359,1.709-0.99,2.788c-0.629,1.079-1.619,2.069-2.878,3.06s-2.879,1.799-4.77,2.429c-1.89,0.63-4.139,0.99-6.657,0.99
		c-5.759,0-10.167-1.62-13.315-4.858c-3.149-3.238-4.768-7.647-4.768-13.314c0-2.609,0.358-5.039,1.169-7.288
		c0.81-2.25,1.89-4.14,3.419-5.758c1.529-1.62,3.329-2.879,5.578-3.688c2.159-0.898,4.589-1.259,7.288-1.259
		c3.509,0,6.478,0.719,8.996,2.158c2.52,1.439,4.318,3.329,5.579,5.668c1.26,2.338,1.89,4.678,1.89,7.106
		c0,2.249-0.629,3.688-1.89,4.319C121.967,43.856,120.168,44.125,117.828,44.125z M100.374,39.087h16.195
		c-0.181-3.059-1.08-5.308-2.431-6.838C112.7,30.719,110.81,30,108.47,30c-2.249,0-4.049,0.81-5.487,2.339
		C101.544,33.779,100.734,36.119,100.374,39.087z"/>
</g>
</svg>
