<?xml version="1.0" encoding="utf-8"?>
<!-- Generator: Adobe Illustrator 22.0.0, SVG Export Plug-In . SVG Version: 6.00 Build 0)  -->
<svg version="1.1" id="Layer_8" xmlns="http://www.w3.org/2000/svg" xmlns:xlink="http://www.w3.org/1999/xlink" x="0px" y="0px"
	 viewBox="0 0 300 100" style="enable-background:new 0 0 300 100;" xml:space="preserve">
<style type="text/css">
	.st0{fill:#FFFFFF;}
</style>
<g>
	<path class="st0" d="M41.1,18.9V34c1.9-1.9,3.8-3.4,5.7-4.4c1.9-1,4.3-1.5,7.2-1.5c3.3,0,6.2,0.8,8.6,2.3c2.5,1.6,4.4,3.8,5.8,6.8
		c1.4,3,2,6.5,2,10.5c0,3-0.4,5.7-1.1,8.2c-0.8,2.5-1.9,4.7-3.3,6.5c-1.5,1.8-3.2,3.3-5.3,4.3c-2.1,1-4.3,1.5-6.8,1.5
		c-1.5,0-3-0.2-4.3-0.5c-1.3-0.4-2.5-0.8-3.4-1.4c-0.9-0.6-1.7-1.2-2.4-1.8c-0.7-0.6-1.5-1.6-2.6-2.8v1c0,1.9-0.4,3.3-1.3,4.2
		c-0.9,1-2,1.4-3.4,1.4c-1.4,0-2.5-0.5-3.4-1.4c-0.8-1-1.3-2.4-1.3-4.2V19.3c0-2,0.4-3.5,1.2-4.6c0.8-1,1.9-1.5,3.4-1.5
		c1.5,0,2.7,0.5,3.5,1.5C40.7,15.7,41.1,17.1,41.1,18.9z M41.6,48.3c0,3.9,0.9,7,2.7,9.1c1.8,2.1,4.2,3.2,7.1,3.2
		c2.5,0,4.6-1.1,6.4-3.2c1.8-2.2,2.7-5.3,2.7-9.3c0-2.6-0.4-4.9-1.1-6.7c-0.7-1.9-1.8-3.3-3.2-4.4c-1.4-1-3-1.5-4.8-1.5
		c-1.9,0-3.6,0.5-5,1.5c-1.5,1-2.6,2.5-3.5,4.5C42,43.3,41.6,45.6,41.6,48.3z"/>
	<path class="st0" d="M87.4,33.4v1.2c1.7-2.3,3.6-4,5.7-5.1s4.4-1.6,7.1-1.6c2.6,0,4.9,0.6,7,1.7c2.1,1.1,3.6,2.7,4.6,4.8
		c0.7,1.2,1.1,2.5,1.3,3.9c0.2,1.4,0.3,3.2,0.3,5.4v18.4c0,2-0.5,3.5-1.4,4.5c-0.9,1-2.1,1.5-3.5,1.5c-1.5,0-2.7-0.5-3.6-1.6
		c-0.9-1-1.4-2.5-1.4-4.5V45.7c0-3.3-0.5-5.8-1.4-7.5c-0.9-1.7-2.7-2.6-5.4-2.6c-1.8,0-3.4,0.5-4.8,1.6c-1.5,1.1-2.5,2.5-3.2,4.3
		C88.3,43,88,45.8,88,49.8v12.4c0,2-0.5,3.5-1.4,4.5c-0.9,1-2.1,1.5-3.6,1.5c-1.4,0-2.6-0.5-3.5-1.6c-0.9-1-1.4-2.5-1.4-4.5V33.6
		c0-1.9,0.4-3.3,1.2-4.2c0.8-0.9,1.9-1.4,3.4-1.4c0.9,0,1.7,0.2,2.4,0.6c0.7,0.4,1.3,1,1.7,1.8C87.2,31.3,87.4,32.3,87.4,33.4z"/>
	<path class="st0" d="M150.9,50.5h-19.4c0,2.2,0.5,4.2,1.4,5.9c0.9,1.7,2.1,3,3.5,3.9c1.5,0.9,3.1,1.3,4.8,1.3
		c1.2,0,2.3-0.1,3.2-0.4c1-0.3,1.9-0.7,2.8-1.3c0.9-0.6,1.8-1.2,2.5-1.9c0.8-0.7,1.8-1.6,3-2.8c0.5-0.4,1.2-0.7,2.2-0.7
		c1,0,1.8,0.3,2.5,0.8c0.6,0.6,0.9,1.3,0.9,2.4c0,0.9-0.4,1.9-1.1,3.1c-0.7,1.2-1.8,2.3-3.2,3.4c-1.4,1.1-3.2,2-5.3,2.7
		c-2.1,0.7-4.6,1.1-7.4,1.1c-6.4,0-11.3-1.8-14.8-5.4c-3.5-3.6-5.3-8.5-5.3-14.8c0-2.9,0.4-5.6,1.3-8.1c0.9-2.5,2.1-4.6,3.8-6.4
		c1.7-1.8,3.7-3.2,6.2-4.1c2.4-1,5.1-1.4,8.1-1.4c3.9,0,7.2,0.8,10,2.4c2.8,1.6,4.8,3.7,6.2,6.3c1.4,2.6,2.1,5.2,2.1,7.9
		c0,2.5-0.7,4.1-2.1,4.8C155.5,50.2,153.5,50.5,150.9,50.5z M131.5,44.9h18c-0.2-3.4-1.2-5.9-2.7-7.6c-1.6-1.7-3.7-2.5-6.3-2.5
		c-2.5,0-4.5,0.9-6.1,2.6C132.8,39,131.9,41.6,131.5,44.9z"/>
	<path class="st0" d="M166.1,57L178,39.6l-10-15.4c-0.9-1.5-1.6-2.8-2.1-3.9c-0.5-1.1-0.7-2.1-0.7-3.1c0-1,0.5-1.9,1.4-2.7
		c0.9-0.8,2-1.2,3.3-1.2c1.5,0,2.7,0.4,3.5,1.3c0.8,0.9,2,2.5,3.5,4.9l8,12.9l8.5-12.9c0.7-1.1,1.3-2,1.8-2.8c0.5-0.8,1-1.4,1.4-1.9
		c0.5-0.5,1-0.9,1.5-1.1c0.6-0.3,1.2-0.4,2-0.4c1.4,0,2.5,0.4,3.3,1.2c0.9,0.8,1.3,1.8,1.3,2.9c0,1.6-0.9,3.8-2.8,6.6l-10.5,15.7
		L202.7,57c1,1.5,1.8,2.8,2.2,3.8c0.5,1,0.7,2,0.7,2.8c0,0.8-0.2,1.6-0.6,2.3c-0.4,0.7-1,1.3-1.7,1.7c-0.8,0.4-1.6,0.6-2.5,0.6
		c-1,0-1.9-0.2-2.6-0.6c-0.7-0.4-1.3-0.9-1.7-1.6s-1.2-1.8-2.4-3.7l-9.4-14.7l-9.9,15.2c-0.8,1.2-1.3,2.1-1.6,2.5s-0.7,1-1.2,1.4
		c-0.5,0.5-1,0.8-1.6,1.1c-0.6,0.3-1.4,0.4-2.2,0.4c-1.3,0-2.4-0.4-3.2-1.2c-0.9-0.8-1.3-2-1.3-3.5C163.5,61.8,164.4,59.6,166.1,57z
		"/>
	<path class="st0" d="M212.8,28.8h1.1v-5.9c0-1.6,0-2.8,0.1-3.8c0.1-0.9,0.3-1.7,0.7-2.3c0.4-0.7,0.9-1.2,1.7-1.6
		c0.7-0.4,1.5-0.6,2.4-0.6c1.3,0,2.4,0.5,3.4,1.4c0.7,0.6,1.1,1.4,1.3,2.3c0.2,0.9,0.3,2.2,0.3,3.9v6.7h3.6c1.4,0,2.5,0.3,3.2,1
		c0.7,0.7,1.1,1.5,1.1,2.6c0,1.3-0.5,2.3-1.6,2.8c-1.1,0.5-2.6,0.8-4.5,0.8h-1.8v18.2c0,1.5,0.1,2.7,0.2,3.6c0.1,0.8,0.4,1.5,0.9,2
		c0.5,0.5,1.2,0.8,2.3,0.8c0.6,0,1.4-0.1,2.4-0.3c1-0.2,1.8-0.3,2.3-0.3c0.8,0,1.5,0.3,2.2,1c0.6,0.6,1,1.4,1,2.4
		c0,1.6-0.9,2.8-2.6,3.7c-1.7,0.8-4.2,1.3-7.5,1.3c-3.1,0-5.4-0.5-7-1.6c-1.6-1-2.6-2.5-3.1-4.3c-0.5-1.8-0.7-4.3-0.7-7.4V36h-1.3
		c-1.4,0-2.5-0.3-3.3-1c-0.8-0.7-1.1-1.5-1.1-2.6c0-1,0.4-1.9,1.2-2.6C210.2,29.2,211.3,28.8,212.8,28.8z"/>
	<g>
		<g>
			<path class="st0" d="M31.4,72.1v-1.5h1.3v1.5H31.4z M31.4,81.1v-7.6h1.3v7.6H31.4z"/>
			<path class="st0" d="M34.9,81.1v-7.6H36v1.1c0.6-0.8,1.4-1.3,2.4-1.3c0.5,0,0.9,0.1,1.3,0.2c0.4,0.2,0.7,0.4,0.9,0.6
				c0.2,0.3,0.3,0.6,0.4,1c0,0.2,0.1,0.7,0.1,1.3v4.7h-1.3v-4.6c0-0.5-0.1-0.9-0.2-1.2c-0.1-0.3-0.3-0.5-0.5-0.6
				c-0.3-0.2-0.6-0.2-0.9-0.2c-0.5,0-1,0.2-1.4,0.5c-0.4,0.3-0.6,1-0.6,2v4.2H34.9z"/>
			<path class="st0" d="M47.5,72.1v-1.5h1.3v1.5H47.5z M47.5,81.1v-7.6h1.3v7.6H47.5z"/>
			<path class="st0" d="M50.9,81.1v-7.6h1.2v1.1c0.6-0.8,1.4-1.3,2.4-1.3c0.5,0,0.9,0.1,1.3,0.2c0.4,0.2,0.7,0.4,0.9,0.6
				c0.2,0.3,0.3,0.6,0.4,1c0,0.2,0.1,0.7,0.1,1.3v4.7h-1.3v-4.6c0-0.5-0.1-0.9-0.2-1.2c-0.1-0.3-0.3-0.5-0.5-0.6
				c-0.3-0.2-0.6-0.2-0.9-0.2c-0.5,0-1,0.2-1.4,0.5c-0.4,0.3-0.6,1-0.6,2v4.2H50.9z"/>
			<path class="st0" d="M59.3,81.1v-7.6h1.2v1.1c0.6-0.8,1.4-1.3,2.4-1.3c0.5,0,0.9,0.1,1.3,0.2c0.4,0.2,0.7,0.4,0.9,0.6
				c0.2,0.3,0.3,0.6,0.4,1c0,0.2,0.1,0.7,0.1,1.3v4.7h-1.3v-4.6c0-0.5-0.1-0.9-0.2-1.2c-0.1-0.3-0.3-0.5-0.5-0.6
				c-0.3-0.2-0.6-0.2-0.9-0.2c-0.5,0-1,0.2-1.4,0.5c-0.4,0.3-0.6,1-0.6,2v4.2H59.3z"/>
			<path class="st0" d="M67.1,77.3c0-1.4,0.4-2.5,1.2-3.1c0.7-0.6,1.5-0.8,2.4-0.8c1,0,1.9,0.3,2.6,1c0.7,0.7,1,1.6,1,2.8
				c0,1-0.1,1.7-0.4,2.3c-0.3,0.6-0.7,1-1.3,1.3c-0.6,0.3-1.2,0.5-1.8,0.5c-1.1,0-1.9-0.3-2.6-1C67.5,79.5,67.1,78.6,67.1,77.3z
				 M68.5,77.3c0,1,0.2,1.7,0.6,2.2c0.4,0.5,1,0.7,1.6,0.7c0.6,0,1.2-0.2,1.6-0.7s0.6-1.2,0.6-2.2c0-0.9-0.2-1.7-0.6-2.1
				c-0.4-0.5-1-0.7-1.6-0.7c-0.6,0-1.2,0.2-1.6,0.7C68.7,75.6,68.5,76.3,68.5,77.3z"/>
			<path class="st0" d="M78.1,81.1l-2.9-7.6h1.4l1.6,4.6c0.2,0.5,0.3,1,0.5,1.5c0.1-0.4,0.3-0.9,0.5-1.4l1.7-4.6h1.3l-2.9,7.6H78.1z
				"/>
			<path class="st0" d="M88.4,80.1c-0.5,0.4-0.9,0.7-1.4,0.9c-0.4,0.2-0.9,0.3-1.4,0.3c-0.8,0-1.5-0.2-1.9-0.6
				c-0.4-0.4-0.7-0.9-0.7-1.6c0-0.4,0.1-0.7,0.3-1c0.2-0.3,0.4-0.6,0.7-0.7c0.3-0.2,0.6-0.3,0.9-0.4c0.3-0.1,0.6-0.1,1.1-0.2
				c1-0.1,1.8-0.3,2.3-0.4c0-0.2,0-0.3,0-0.3c0-0.5-0.1-0.9-0.4-1.1c-0.3-0.3-0.8-0.4-1.5-0.4c-0.6,0-1.1,0.1-1.3,0.3
				c-0.3,0.2-0.5,0.6-0.6,1.1l-1.3-0.2c0.1-0.5,0.3-1,0.6-1.3c0.3-0.3,0.6-0.6,1.1-0.8c0.5-0.2,1.1-0.3,1.7-0.3
				c0.6,0,1.2,0.1,1.6,0.2c0.4,0.2,0.7,0.3,0.9,0.6c0.2,0.2,0.3,0.5,0.4,0.9c0,0.2,0.1,0.6,0.1,1.2v1.7c0,1.2,0,2,0.1,2.3
				c0.1,0.3,0.2,0.6,0.3,0.9h-1.3C88.6,80.8,88.5,80.5,88.4,80.1z M88.3,77.3c-0.5,0.2-1.2,0.4-2.1,0.5c-0.5,0.1-0.9,0.2-1.1,0.3
				c-0.2,0.1-0.4,0.2-0.5,0.4c-0.1,0.2-0.2,0.4-0.2,0.6c0,0.3,0.1,0.6,0.4,0.9c0.3,0.2,0.6,0.3,1.1,0.3c0.5,0,0.9-0.1,1.3-0.3
				c0.4-0.2,0.7-0.5,0.9-0.9c0.1-0.3,0.2-0.7,0.2-1.3V77.3z"/>
			<path class="st0" d="M94.6,79.9l0.2,1.1c-0.4,0.1-0.7,0.1-1,0.1c-0.5,0-0.8-0.1-1.1-0.2c-0.3-0.1-0.4-0.3-0.5-0.6
				c-0.1-0.2-0.2-0.7-0.2-1.5v-4.4h-0.9v-1h0.9v-1.9l1.3-0.8v2.7h1.3v1h-1.3v4.4c0,0.4,0,0.6,0.1,0.7c0,0.1,0.1,0.2,0.2,0.3
				c0.1,0.1,0.2,0.1,0.4,0.1C94.2,80,94.4,80,94.6,79.9z"/>
			<path class="st0" d="M96.1,72.1v-1.5h1.3v1.5H96.1z M96.1,81.1v-7.6h1.3v7.6H96.1z"/>
			<path class="st0" d="M99,77.3c0-1.4,0.4-2.5,1.2-3.1c0.7-0.6,1.5-0.8,2.4-0.8c1,0,1.9,0.3,2.6,1c0.7,0.7,1,1.6,1,2.8
				c0,1-0.1,1.7-0.4,2.3c-0.3,0.6-0.7,1-1.3,1.3c-0.6,0.3-1.2,0.5-1.8,0.5c-1.1,0-1.9-0.3-2.6-1C99.4,79.5,99,78.6,99,77.3z
				 M100.4,77.3c0,1,0.2,1.7,0.6,2.2c0.4,0.5,1,0.7,1.6,0.7c0.6,0,1.2-0.2,1.6-0.7s0.6-1.2,0.6-2.2c0-0.9-0.2-1.7-0.6-2.1
				c-0.4-0.5-1-0.7-1.6-0.7c-0.6,0-1.2,0.2-1.6,0.7C100.6,75.6,100.4,76.3,100.4,77.3z"/>
			<path class="st0" d="M107.9,81.1v-7.6h1.2v1.1c0.6-0.8,1.4-1.3,2.4-1.3c0.5,0,0.9,0.1,1.3,0.2c0.4,0.2,0.7,0.4,0.9,0.6
				c0.2,0.3,0.3,0.6,0.4,1c0,0.2,0.1,0.7,0.1,1.3v4.7h-1.3v-4.6c0-0.5-0.1-0.9-0.2-1.2c-0.1-0.3-0.3-0.5-0.5-0.6
				c-0.3-0.2-0.6-0.2-0.9-0.2c-0.5,0-1,0.2-1.4,0.5c-0.4,0.3-0.6,1-0.6,2v4.2H107.9z"/>
		</g>
	</g>
</g>
</svg>
