<?xml version="1.0" encoding="utf-8"?>
<!-- Generator: Adobe Illustrator 16.0.0, SVG Export Plug-In . SVG Version: 6.00 Build 0)  -->
<!DOCTYPE svg PUBLIC "-//W3C//DTD SVG 1.1//EN" "http://www.w3.org/Graphics/SVG/1.1/DTD/svg11.dtd">
<svg version="1.1" id="Layer_8" xmlns="http://www.w3.org/2000/svg" xmlns:xlink="http://www.w3.org/1999/xlink" x="0px" y="0px"
	 width="203.896px" height="82.402px" viewBox="32.604 214.098 203.896 82.402"
	 enable-background="new 32.604 214.098 203.896 82.402" xml:space="preserve">
<g>
	<path fill="#C55B11" d="M51.784,230.063v13.584c1.709-1.709,3.419-3.059,5.128-3.958s3.869-1.349,6.478-1.349
		c2.969,0,5.579,0.72,7.738,2.068c2.249,1.439,3.958,3.419,5.218,6.118s1.799,5.849,1.799,9.447c0,2.699-0.36,5.128-0.99,7.377
		c-0.72,2.249-1.709,4.229-2.969,5.848c-1.349,1.62-2.879,2.969-4.769,3.869c-1.889,0.9-3.868,1.35-6.118,1.35
		c-1.35,0-2.699-0.18-3.869-0.45c-1.169-0.36-2.249-0.72-3.059-1.26c-0.81-0.539-1.529-1.079-2.159-1.619
		c-0.63-0.539-1.35-1.439-2.339-2.519v0.899c0,1.709-0.36,2.969-1.169,3.778c-0.81,0.899-1.8,1.26-3.059,1.26
		c-1.26,0-2.25-0.45-3.059-1.26c-0.72-0.9-1.169-2.159-1.169-3.778v-39.046c0-1.8,0.36-3.149,1.08-4.139
		c0.72-0.9,1.709-1.35,3.059-1.35c1.349,0,2.429,0.45,3.149,1.35C51.424,227.183,51.784,228.442,51.784,230.063z M52.234,256.514
		c0,3.508,0.81,6.297,2.429,8.187c1.619,1.89,3.779,2.879,6.388,2.879c2.25,0,4.139-0.99,5.758-2.879
		c1.62-1.979,2.429-4.768,2.429-8.367c0-2.339-0.36-4.408-0.99-6.028c-0.63-1.71-1.62-2.969-2.879-3.959
		c-1.26-0.9-2.699-1.35-4.319-1.35c-1.709,0-3.239,0.449-4.499,1.35c-1.349,0.899-2.339,2.249-3.148,4.049
		C52.594,252.015,52.234,254.084,52.234,256.514z"/>
	<path display="none" fill="#3D66AD" d="M93.44,243.108v1.08c1.529-2.069,3.239-3.599,5.128-4.589
		c1.889-0.989,3.958-1.439,6.388-1.439c2.339,0,4.408,0.54,6.298,1.529c1.889,0.99,3.239,2.429,4.138,4.318
		c0.63,1.08,0.99,2.249,1.17,3.509c0.18,1.259,0.27,2.879,0.27,4.858v16.554c0,1.799-0.45,3.149-1.26,4.049
		c-0.81,0.899-1.889,1.349-3.148,1.349c-1.35,0-2.43-0.45-3.239-1.439c-0.81-0.899-1.259-2.249-1.259-4.048v-14.665
		c0-2.969-0.45-5.218-1.26-6.749c-0.81-1.529-2.429-2.338-4.858-2.338c-1.62,0-3.059,0.45-4.319,1.439
		c-1.35,0.99-2.249,2.25-2.879,3.869c-0.36,1.35-0.629,3.868-0.629,7.467v11.157c0,1.799-0.45,3.149-1.26,4.048
		c-0.81,0.9-1.89,1.35-3.239,1.35c-1.259,0-2.339-0.45-3.149-1.439c-0.81-0.9-1.259-2.25-1.259-4.049v-25.641
		c0-1.71,0.36-2.969,1.08-3.779s1.709-1.259,3.059-1.259c0.81,0,1.529,0.18,2.159,0.54c0.63,0.359,1.169,0.899,1.529,1.619
		C93.261,241.218,93.44,242.118,93.44,243.108z"/>
	<path display="none" fill="#3E68B5" d="M150.571,258.492h-17.454c0,1.979,0.45,3.779,1.259,5.309
		c0.81,1.529,1.89,2.699,3.149,3.508c1.35,0.81,2.79,1.17,4.319,1.17c1.08,0,2.069-0.09,2.879-0.36
		c0.9-0.27,1.709-0.629,2.519-1.169c0.81-0.54,1.62-1.08,2.249-1.709c0.72-0.63,1.62-1.439,2.7-2.52
		c0.45-0.359,1.08-0.63,1.979-0.63c0.9,0,1.619,0.271,2.249,0.72c0.54,0.54,0.81,1.17,0.81,2.16c0,0.81-0.359,1.709-0.99,2.789
		c-0.629,1.079-1.619,2.069-2.878,3.059s-2.879,1.799-4.769,2.429c-1.89,0.63-4.139,0.99-6.658,0.99
		c-5.758,0-10.167-1.62-13.315-4.858c-3.149-3.239-4.768-7.648-4.768-13.315c0-2.609,0.359-5.039,1.169-7.288
		c0.81-2.25,1.89-4.139,3.419-5.758c1.53-1.62,3.329-2.879,5.578-3.688c2.16-0.899,4.589-1.259,7.288-1.259
		c3.509,0,6.478,0.719,8.997,2.158c2.519,1.44,4.318,3.329,5.579,5.668c1.259,2.338,1.889,4.678,1.889,7.107
		c0,2.249-0.629,3.688-1.889,4.319C154.71,258.223,152.911,258.492,150.571,258.492z M133.117,253.454h16.195
		c-0.18-3.059-1.08-5.308-2.43-6.838c-1.439-1.529-3.329-2.249-5.668-2.249c-2.249,0-4.049,0.81-5.488,2.339
		C134.287,248.146,133.477,250.486,133.117,253.454z"/>
	<path fill="#C55B11" d="M164.246,264.34l10.707-15.653l-8.997-13.855c-0.81-1.35-1.439-2.52-1.89-3.509
		c-0.45-0.99-0.629-1.889-0.629-2.79c0-0.9,0.451-1.709,1.26-2.429c0.81-0.72,1.799-1.08,2.968-1.08c1.35,0,2.429,0.36,3.149,1.17
		c0.72,0.81,1.799,2.249,3.149,4.409l7.198,11.606l7.647-11.606c0.629-0.989,1.169-1.799,1.619-2.519
		c0.45-0.72,0.899-1.26,1.259-1.709c0.45-0.45,0.899-0.81,1.351-0.99c0.539-0.27,1.079-0.36,1.799-0.36
		c1.259,0,2.249,0.36,2.968,1.08c0.81,0.72,1.169,1.62,1.169,2.609c0,1.439-0.81,3.419-2.519,5.938l-9.447,14.125l10.166,15.564
		c0.9,1.35,1.62,2.52,1.979,3.42c0.45,0.899,0.63,1.799,0.63,2.519c0,0.72-0.18,1.439-0.54,2.069c-0.36,0.63-0.9,1.17-1.53,1.53
		c-0.72,0.36-1.439,0.54-2.249,0.54c-0.9,0-1.709-0.18-2.339-0.54c-0.63-0.36-1.17-0.81-1.529-1.439
		c-0.36-0.629-1.081-1.619-2.16-3.329l-8.457-13.225l-8.908,13.676c-0.719,1.079-1.169,1.889-1.439,2.249
		c-0.27,0.36-0.629,0.899-1.079,1.259c-0.45,0.45-0.9,0.72-1.439,0.99c-0.54,0.27-1.26,0.36-1.979,0.36
		c-1.169,0-2.16-0.36-2.88-1.08c-0.81-0.719-1.169-1.799-1.169-3.148C161.907,268.659,162.717,266.68,164.246,264.34z"/>
	<linearGradient id="SVGID_1_" gradientUnits="userSpaceOnUse" x1="214.3599" y1="259.1445" x2="214.3599" y2="236.4414">
		<stop  offset="0" style="stop-color:#6F92D2"/>
		<stop  offset="1" style="stop-color:#365BA1"/>
	</linearGradient>
	<path fill="url(#SVGID_1_)" d="M206.263,238.97h0.99v-5.308c0-1.439,0-2.519,0.089-3.418c0.09-0.81,0.27-1.53,0.63-2.07
		c0.36-0.63,0.81-1.079,1.53-1.439c0.629-0.36,1.349-0.54,2.159-0.54c1.169,0,2.159,0.451,3.059,1.26
		c0.63,0.539,0.99,1.259,1.17,2.069c0.179,0.81,0.27,1.979,0.27,3.509v6.028h3.239c1.259,0,2.249,0.269,2.879,0.899
		c0.629,0.629,0.989,1.35,0.989,2.339c0,1.169-0.449,2.069-1.439,2.519c-0.99,0.451-2.34,0.72-4.049,0.72h-1.62v16.374
		c0,1.35,0.09,2.429,0.18,3.239c0.089,0.719,0.36,1.349,0.81,1.799c0.45,0.45,1.08,0.72,2.069,0.72c0.54,0,1.259-0.089,2.16-0.27
		c0.899-0.18,1.619-0.271,2.069-0.271c0.72,0,1.35,0.271,1.979,0.9c0.54,0.54,0.899,1.259,0.899,2.159
		c0,1.439-0.81,2.519-2.339,3.329c-1.53,0.72-3.779,1.169-6.748,1.169c-2.789,0-4.858-0.449-6.297-1.439
		c-1.439-0.9-2.34-2.249-2.79-3.868c-0.449-1.619-0.629-3.869-0.629-6.658v-17.274h-1.17c-1.259,0-2.249-0.27-2.969-0.899
		c-0.719-0.63-0.99-1.35-0.99-2.339c0-0.899,0.36-1.709,1.08-2.339C203.923,239.329,204.913,238.97,206.263,238.97z"/>
	<g>
		<g>
			<path fill="#3E68B5" d="M43.057,277.925v-1.349h1.17v1.349H43.057z M43.057,286.023v-6.838h1.17v6.838H43.057z"/>
			<path fill="#3E68B5" d="M46.206,286.023v-6.838h0.989v0.989c0.541-0.719,1.26-1.169,2.16-1.169c0.45,0,0.81,0.09,1.17,0.18
				c0.36,0.179,0.629,0.359,0.81,0.539c0.18,0.271,0.27,0.54,0.36,0.9c0,0.18,0.09,0.629,0.09,1.169v4.229h-1.169v-4.139
				c0-0.45-0.09-0.81-0.18-1.08c-0.09-0.27-0.27-0.45-0.45-0.54c-0.27-0.18-0.54-0.18-0.81-0.18c-0.45,0-0.899,0.18-1.26,0.45
				c-0.359,0.27-0.54,0.9-0.54,1.799v3.779h-1.169V286.023z"/>
			<path fill="#3E68B5" d="M57.542,277.925v-1.349h1.17v1.349H57.542z M57.542,286.023v-6.838h1.17v6.838H57.542z"/>
			<path fill="#3E68B5" d="M60.601,286.023v-6.838h1.08v0.989c0.54-0.719,1.259-1.169,2.159-1.169c0.45,0,0.81,0.09,1.169,0.18
				c0.36,0.179,0.629,0.359,0.81,0.539c0.18,0.271,0.27,0.54,0.36,0.9c0,0.18,0.09,0.629,0.09,1.169v4.229H65.1v-4.139
				c0-0.45-0.09-0.81-0.18-1.08c-0.09-0.27-0.27-0.45-0.45-0.54c-0.27-0.18-0.54-0.18-0.81-0.18c-0.45,0-0.9,0.18-1.259,0.45
				c-0.36,0.27-0.54,0.9-0.54,1.799v3.779h-1.26V286.023z"/>
			<path fill="#3E68B5" d="M68.159,286.023v-6.838h1.08v0.989c0.54-0.719,1.26-1.169,2.159-1.169c0.45,0,0.81,0.09,1.17,0.18
				c0.36,0.179,0.629,0.359,0.81,0.539c0.18,0.271,0.27,0.54,0.36,0.9c0,0.18,0.09,0.629,0.09,1.169v4.229h-1.17v-4.139
				c0-0.45-0.09-0.81-0.18-1.08c-0.09-0.27-0.27-0.45-0.449-0.54c-0.27-0.18-0.54-0.18-0.81-0.18c-0.45,0-0.899,0.18-1.26,0.45
				c-0.36,0.27-0.54,0.9-0.54,1.799v3.779h-1.259V286.023z"/>
			<path fill="#3E68B5" d="M75.176,282.604c0-1.26,0.36-2.25,1.08-2.789c0.63-0.54,1.35-0.72,2.16-0.72
				c0.899,0,1.709,0.27,2.339,0.9c0.63,0.63,0.9,1.439,0.9,2.519c0,0.9-0.09,1.53-0.36,2.069c-0.27,0.54-0.629,0.9-1.169,1.169
				c-0.54,0.271-1.08,0.45-1.62,0.45c-0.99,0-1.709-0.27-2.339-0.9C75.537,284.583,75.176,283.773,75.176,282.604z M76.436,282.604
				c0,0.899,0.18,1.529,0.54,1.979c0.36,0.451,0.9,0.631,1.44,0.631c0.54,0,1.079-0.18,1.439-0.631c0.36-0.45,0.54-1.08,0.54-1.979
				c0-0.81-0.18-1.53-0.54-1.89c-0.36-0.45-0.9-0.629-1.439-0.629c-0.54,0-1.08,0.18-1.44,0.629
				C76.616,281.075,76.436,281.704,76.436,282.604z"/>
			<path fill="#3E68B5" d="M85.073,286.023l-2.609-6.838h1.26l1.439,4.138c0.18,0.45,0.27,0.9,0.45,1.35
				c0.09-0.36,0.27-0.81,0.45-1.259l1.53-4.139h1.169l-2.609,6.837h-1.08V286.023z"/>
			<path fill="#3E68B5" d="M94.34,285.123c-0.45,0.36-0.81,0.629-1.259,0.81c-0.36,0.18-0.81,0.27-1.26,0.27
				c-0.72,0-1.35-0.179-1.709-0.539c-0.36-0.361-0.63-0.81-0.63-1.44c0-0.36,0.09-0.63,0.27-0.9s0.36-0.54,0.629-0.63
				c0.271-0.18,0.54-0.27,0.811-0.36c0.27-0.09,0.54-0.09,0.989-0.18c0.9-0.089,1.62-0.27,2.069-0.359c0-0.18,0-0.27,0-0.27
				c0-0.45-0.09-0.81-0.36-0.99c-0.27-0.27-0.72-0.36-1.35-0.36c-0.54,0-0.989,0.09-1.169,0.271c-0.27,0.18-0.45,0.54-0.54,0.99
				l-1.169-0.18c0.09-0.45,0.27-0.9,0.54-1.169c0.27-0.27,0.54-0.54,0.99-0.72c0.449-0.179,0.989-0.27,1.529-0.27
				s1.08,0.09,1.439,0.18c0.36,0.18,0.63,0.27,0.81,0.54c0.18,0.18,0.27,0.449,0.36,0.81c0,0.18,0.09,0.539,0.09,1.079v1.53
				c0,1.08,0,1.8,0.09,2.069c0.09,0.27,0.18,0.541,0.27,0.81h-1.17C94.52,285.752,94.43,285.483,94.34,285.123z M94.25,282.604
				c-0.45,0.179-1.08,0.359-1.889,0.449c-0.45,0.09-0.81,0.18-0.99,0.27c-0.18,0.09-0.36,0.18-0.45,0.36
				c-0.09,0.18-0.18,0.36-0.18,0.54c0,0.27,0.09,0.539,0.36,0.81c0.27,0.18,0.54,0.269,0.99,0.269c0.45,0,0.81-0.089,1.17-0.269
				c0.359-0.18,0.629-0.451,0.81-0.81c0.09-0.271,0.18-0.63,0.18-1.17V282.604L94.25,282.604z"/>
			<path fill="#3E68B5" d="M99.918,284.943l0.18,0.99c-0.36,0.09-0.63,0.09-0.9,0.09c-0.45,0-0.72-0.09-0.99-0.18
				c-0.27-0.091-0.359-0.271-0.45-0.541c-0.09-0.18-0.18-0.629-0.18-1.35v-3.958h-0.81v-0.9h0.81v-1.709l1.169-0.72v2.429h1.169v0.9
				h-1.169v3.958c0,0.36,0,0.54,0.09,0.63c0,0.09,0.09,0.18,0.18,0.271c0.09,0.089,0.18,0.089,0.36,0.089
				C99.559,285.034,99.738,285.034,99.918,284.943z"/>
			<path fill="#3E68B5" d="M101.268,277.925v-1.349h1.169v1.349H101.268z M101.268,286.023v-6.838h1.169v6.838H101.268z"/>
			<path fill="#3E68B5" d="M103.877,282.604c0-1.26,0.36-2.25,1.08-2.789c0.63-0.54,1.349-0.72,2.159-0.72
				c0.899,0,1.709,0.27,2.339,0.9c0.629,0.63,0.899,1.439,0.899,2.519c0,0.9-0.09,1.53-0.36,2.069c-0.27,0.54-0.63,0.9-1.169,1.169
				c-0.54,0.271-1.08,0.45-1.62,0.45c-0.989,0-1.709-0.27-2.339-0.9C104.237,284.583,103.877,283.773,103.877,282.604z
				 M105.137,282.604c0,0.899,0.18,1.529,0.54,1.979c0.36,0.451,0.899,0.631,1.439,0.631s1.08-0.18,1.439-0.631
				c0.36-0.45,0.54-1.08,0.54-1.979c0-0.81-0.18-1.53-0.54-1.89c-0.36-0.45-0.899-0.629-1.439-0.629s-1.08,0.18-1.439,0.629
				C105.316,281.075,105.137,281.704,105.137,282.604z"/>
			<path fill="#3E68B5" d="M111.884,286.023v-6.838h1.08v0.989c0.54-0.719,1.26-1.169,2.159-1.169c0.45,0,0.81,0.09,1.169,0.18
				c0.36,0.179,0.63,0.359,0.81,0.539c0.18,0.271,0.27,0.54,0.36,0.9c0,0.18,0.09,0.629,0.09,1.169v4.229h-1.17v-4.139
				c0-0.45-0.09-0.81-0.18-1.08s-0.27-0.45-0.45-0.54c-0.27-0.18-0.54-0.18-0.81-0.18c-0.45,0-0.9,0.18-1.26,0.45
				s-0.54,0.9-0.54,1.799v3.779h-1.259V286.023z"/>
		</g>
	</g>
	
		<linearGradient id="SVGID_2_" gradientUnits="userSpaceOnUse" x1="45.6538" y1="790.1094" x2="45.6538" y2="807.8621" gradientTransform="matrix(2.04 0 0 -2.04 7.8198 1886.239)">
		<stop  offset="0" style="stop-color:#6F92D2"/>
		<stop  offset="1" style="stop-color:#365BA1"/>
	</linearGradient>
	<path fill="url(#SVGID_2_)" d="M93.44,243.108v1.08c1.529-2.069,3.239-3.599,5.128-4.589c1.889-0.989,3.958-1.439,6.388-1.439
		c2.339,0,4.408,0.54,6.298,1.529c1.889,0.99,3.239,2.429,4.138,4.318c0.63,1.08,0.99,2.249,1.17,3.509
		c0.18,1.259,0.27,2.879,0.27,4.858v16.554c0,1.799-0.45,3.149-1.26,4.049c-0.81,0.899-1.889,1.349-3.148,1.349
		c-1.35,0-2.43-0.45-3.239-1.439c-0.81-0.899-1.259-2.249-1.259-4.048v-14.665c0-2.969-0.45-5.218-1.26-6.749
		c-0.81-1.529-2.429-2.338-4.858-2.338c-1.62,0-3.059,0.45-4.319,1.439c-1.35,0.99-2.249,2.25-2.879,3.869
		c-0.36,1.35-0.629,3.868-0.629,7.467v11.157c0,1.799-0.45,3.149-1.26,4.048c-0.81,0.9-1.89,1.35-3.239,1.35
		c-1.259,0-2.339-0.45-3.149-1.439c-0.81-0.9-1.259-2.25-1.259-4.049v-25.641c0-1.71,0.36-2.969,1.08-3.779s1.709-1.259,3.059-1.259
		c0.81,0,1.529,0.18,2.159,0.54c0.63,0.359,1.169,0.899,1.529,1.619C93.261,241.218,93.44,242.118,93.44,243.108z"/>
	
		<linearGradient id="SVGID_3_" gradientUnits="userSpaceOnUse" x1="65.1909" y1="790.0986" x2="65.1909" y2="807.8827" gradientTransform="matrix(2.04 0 0 -2.04 7.8198 1886.239)">
		<stop  offset="0" style="stop-color:#6F92D2"/>
		<stop  offset="1" style="stop-color:#365BA1"/>
	</linearGradient>
	<path fill="url(#SVGID_3_)" d="M150.571,258.492h-17.454c0,1.979,0.45,3.779,1.259,5.309c0.81,1.529,1.89,2.699,3.149,3.508
		c1.35,0.81,2.79,1.17,4.319,1.17c1.08,0,2.069-0.09,2.879-0.36c0.9-0.27,1.709-0.629,2.519-1.169c0.81-0.54,1.62-1.08,2.249-1.709
		c0.72-0.63,1.62-1.439,2.7-2.52c0.45-0.359,1.08-0.63,1.979-0.63c0.9,0,1.619,0.271,2.249,0.72c0.54,0.54,0.81,1.17,0.81,2.16
		c0,0.81-0.359,1.709-0.99,2.789c-0.629,1.079-1.619,2.069-2.878,3.059s-2.879,1.799-4.769,2.429c-1.89,0.63-4.139,0.99-6.658,0.99
		c-5.758,0-10.167-1.62-13.315-4.858c-3.149-3.239-4.768-7.648-4.768-13.315c0-2.609,0.359-5.039,1.169-7.288
		c0.81-2.25,1.89-4.139,3.419-5.758c1.53-1.62,3.329-2.879,5.578-3.688c2.16-0.899,4.589-1.259,7.288-1.259
		c3.509,0,6.478,0.719,8.997,2.158c2.519,1.44,4.318,3.329,5.579,5.668c1.259,2.338,1.889,4.678,1.889,7.107
		c0,2.249-0.629,3.688-1.889,4.319C154.71,258.223,152.911,258.492,150.571,258.492z M133.117,253.454h16.195
		c-0.18-3.059-1.08-5.308-2.43-6.838c-1.439-1.529-3.329-2.249-5.668-2.249c-2.249,0-4.049,0.81-5.488,2.339
		C134.287,248.146,133.477,250.486,133.117,253.454z"/>
</g>
</svg>
